<?xml version="1.0" encoding="UTF-8" standalone="no"?>
<svg
   xmlns:dc="http://purl.org/dc/elements/1.1/"
   xmlns:cc="http://creativecommons.org/ns#"
   xmlns:rdf="http://www.w3.org/1999/02/22-rdf-syntax-ns#"
   xmlns:svg="http://www.w3.org/2000/svg"
   xmlns="http://www.w3.org/2000/svg"
   xmlns:sodipodi="http://sodipodi.sourceforge.net/DTD/sodipodi-0.dtd"
   xmlns:inkscape="http://www.inkscape.org/namespaces/inkscape"
   height="448pt"
   viewBox="0 0 448 448"
   width="448pt"
   version="1.1"
   id="svg66"
   sodipodi:docname="envelope-icon.svg"
   inkscape:version="1.0.2 (e86c8708, 2021-01-15)">
  <metadata
     id="metadata72">
    <rdf:RDF>
      <cc:Work
         rdf:about="">
        <dc:format>image/svg+xml</dc:format>
        <dc:type
           rdf:resource="http://purl.org/dc/dcmitype/StillImage" />
      </cc:Work>
    </rdf:RDF>
  </metadata>
  <defs
     id="defs70" />
  <sodipodi:namedview
     pagecolor="#ffffff"
     bordercolor="#666666"
     borderopacity="1"
     objecttolerance="10"
     gridtolerance="10"
     guidetolerance="10"
     inkscape:pageopacity="0"
     inkscape:pageshadow="2"
     inkscape:window-width="2560"
     inkscape:window-height="1387"
     id="namedview68"
     showgrid="false"
     inkscape:zoom="1.2304688"
     inkscape:cx="298.66667"
     inkscape:cy="298.66667"
     inkscape:window-x="0"
     inkscape:window-y="25"
     inkscape:window-maximized="1"
     inkscape:current-layer="svg66" />
  <path
     d="m314.375 144h-180.75l90.375 77.464844zm0 0"
     id="path60" />
  <path
     d="m224 240c-1.910156 0-3.757812-.683594-5.207031-1.929688l-98.792969-84.679687v150.609375h208v-150.609375l-98.792969 84.679687c-1.449219 1.246094-3.296875 1.929688-5.207031 1.929688zm0 0"
     id="path62" />
  <path
     d="m224 0c-123.710938 0-224 100.289062-224 224s100.289062 224 224 224 224-100.289062 224-224c-.140625-123.652344-100.347656-223.859375-224-224zm120 312c0 4.417969-3.582031 8-8 8h-224c-4.417969 0-8-3.582031-8-8v-176c0-4.417969 3.582031-8 8-8h224c4.417969 0 8 3.582031 8 8zm0 0"
     id="path64" />
  <path
     style="fill:#ffffff;stroke-width:0.812698"
     d="m 147.4573,425.90041 c -3.71154,-1.13403 -5.6009,-2.48689 -6.85206,-4.90636 -1.07855,-2.08569 -1.22746,-16.92601 -1.22746,-122.32738 0,-132.35737 -0.37084,-123.17153 5.09312,-126.15768 2.4854,-1.35831 10.82507,-1.43597 154.19577,-1.43597 143.37069,0 151.71036,0.0777 154.19576,1.43597 5.46397,2.98615 5.09313,-6.19969 5.09313,126.15768 0,132.35737 0.37084,123.17153 -5.09313,126.15767 -2.48256,1.35676 -10.92129,1.44358 -152.97672,1.57366 -82.69206,0.0757 -151.28485,-0.14818 -152.42841,-0.49759 z M 437.6381,304.63594 c 0,-96.02105 -0.0688,-100.84126 -1.42223,-99.67447 -45.50624,39.23049 -132.71466,113.45838 -133.77926,113.86691 -2.19738,0.84322 -6.09928,0.67749 -8.00008,-0.33979 -0.92685,-0.49604 -30.99023,-26.00461 -66.8075,-56.68571 -35.81727,-30.68111 -65.7549,-56.28575 -66.52805,-56.89922 -1.33096,-1.05605 -1.40574,4.2507 -1.40574,99.75874 V 405.53651 H 298.66667 437.6381 Z m -78.13293,-60.82642 60.1993,-51.60635 -60.5189,-0.20834 c -33.2854,-0.1146 -87.7513,-0.1146 -121.03533,0 l -60.51642,0.20834 60.31325,51.76396 c 33.17228,28.47018 60.5485,51.69304 60.83602,51.60635 0.28753,-0.0867 27.61246,-23.38046 60.72208,-51.76396 z"
     id="path78"
     transform="scale(0.75000003)" />
  <path
     style="fill:#ffffff;stroke-width:0.812698"
     d="m 147.4573,425.90041 c -3.71154,-1.13403 -5.6009,-2.48689 -6.85206,-4.90636 -1.07855,-2.08569 -1.22746,-16.92601 -1.22746,-122.32738 0,-132.35737 -0.37084,-123.17153 5.09312,-126.15768 2.4854,-1.35831 10.82507,-1.43597 154.19577,-1.43597 143.37069,0 151.71036,0.0777 154.19576,1.43597 5.46397,2.98615 5.09313,-6.19969 5.09313,126.15768 0,132.35737 0.37084,123.17153 -5.09313,126.15767 -2.48256,1.35676 -10.92129,1.44358 -152.97672,1.57366 -82.69206,0.0757 -151.28485,-0.14818 -152.42841,-0.49759 z M 437.6381,305.62257 c 0,-54.95267 -0.3147,-100.10843 -0.69932,-100.34614 -0.38462,-0.23771 -30.47823,25.08886 -66.87469,56.28126 -36.39645,31.19241 -66.83167,56.96531 -67.63382,57.27313 -1.85087,0.71024 -5.64884,0.7208 -7.47309,0.0207 -0.77238,-0.29639 -31.2109,-26.06726 -67.64116,-57.26859 -36.43026,-31.20129 -66.54822,-56.53721 -66.9288,-56.30199 -0.38059,0.23522 -0.69198,45.38894 -0.69198,100.34161 v 99.91394 H 298.66667 437.6381 Z m -78.13293,-61.81305 60.1993,-51.60635 -60.5189,-0.20834 c -33.2854,-0.1146 -87.75381,-0.1146 -121.04091,0 l -60.522,0.20834 60.31882,51.75996 c 33.17536,28.46797 60.55409,51.69083 60.84161,51.60635 0.28753,-0.0845 27.61246,-23.37646 60.72208,-51.75996 z"
     id="path84"
     transform="scale(0.75000003)" />
  <path
     style="fill:#ffffff;stroke-width:0.812698"
     d="m 147.4573,425.90041 c -3.71154,-1.13403 -5.6009,-2.48689 -6.85206,-4.90636 -1.07855,-2.08569 -1.22746,-16.92601 -1.22746,-122.32738 0,-132.35737 -0.37084,-123.17153 5.09312,-126.15768 2.4854,-1.35831 10.82507,-1.43597 154.19577,-1.43597 143.37069,0 151.71036,0.0777 154.19576,1.43597 5.46397,2.98615 5.09313,-6.19969 5.09313,126.15768 0,132.35737 0.37084,123.17153 -5.09313,126.15767 -2.48256,1.35676 -10.92129,1.44358 -152.97672,1.57366 -82.69206,0.0757 -151.28485,-0.14818 -152.42841,-0.49759 z M 437.6381,305.62257 c 0,-54.95267 -0.27429,-100.08306 -0.60953,-100.28976 -0.71397,-0.44021 0.72444,-1.65163 -74.05454,62.36793 -31.90206,27.3119 -58.78206,50.10217 -59.73333,50.64506 -2.20654,1.25927 -6.61309,1.31543 -8.86001,0.11291 -0.95756,-0.51247 -28.27066,-23.62467 -60.69578,-51.36044 -32.42511,-27.73578 -62.05758,-53.06796 -65.84993,-56.29375 -3.79235,-3.2258 -7.1752,-5.69201 -7.51746,-5.48049 -0.34225,0.21153 -0.62228,45.34587 -0.62228,100.29854 v 99.91394 H 298.66667 437.6381 Z m -68.26667,-70.31608 c 27.04254,-23.1393 49.29016,-42.39506 49.43915,-42.79056 0.15634,-0.41499 -50.62519,-0.7191 -120.07619,-0.7191 -66.1909,0 -120.3245,0.27428 -120.29689,0.60952 0.0276,0.33524 9.25572,8.47238 20.50692,18.08254 11.2512,9.61016 38.30692,32.74321 60.12383,51.40678 l 39.66709,33.93378 10.73392,-9.22576 c 5.90365,-5.07415 32.85963,-28.1579 59.90217,-51.2972 z"
     id="path86"
     transform="scale(0.75000003)" />
  <path
     style="fill:#ffffff;stroke-width:0.812698"
     d="m 147.4573,425.90146 c -3.71349,-1.1365 -5.60117,-2.48845 -6.85206,-4.90741 -1.07855,-2.08569 -1.22746,-16.92601 -1.22746,-122.32738 0,-132.35737 -0.37084,-123.17153 5.09312,-126.15768 2.4854,-1.35831 10.82507,-1.43597 154.19577,-1.43597 143.37069,0 151.71036,0.0777 154.19576,1.43597 5.46397,2.98615 5.09313,-6.19969 5.09313,126.15768 0,130.98041 0.30403,122.70561 -4.63148,126.05074 -2.21379,1.50043 -6.42687,1.54673 -153.03202,1.68165 -82.91555,0.0763 -151.6912,-0.14761 -152.83476,-0.4976 z M 437.43813,305.84548 c -0.1359,-65.64262 -0.48432,-99.78366 -1.02016,-99.96226 -0.44758,-0.14918 -29.88758,24.62874 -65.42223,55.06205 -35.53464,30.43331 -65.70558,56.03211 -67.04653,56.88621 -2.75569,1.7552 -6.96215,2.02203 -9.60264,0.60914 -0.97632,-0.52243 -21.70657,-18.01812 -46.0672,-38.87932 -75.5959,-64.73646 -86.52686,-73.95474 -87.36508,-73.67656 -0.53442,0.17736 -0.88337,34.40554 -1.01909,99.96074 l -0.20639,99.69103 h 138.97786 138.97785 z m -49.98212,-86.01056 c 17.26332,-14.75048 31.41084,-27.09333 31.43894,-27.42857 0.0281,-0.33524 -54.09622,-0.60952 -120.27625,-0.60952 -87.24451,0 -120.17554,0.24558 -119.77527,0.89324 0.30363,0.49128 27.38757,23.89555 60.18654,52.00948 l 59.63449,51.11624 28.70185,-24.58091 c 15.78601,-13.5195 42.82637,-36.64948 60.0897,-51.39996 z"
     id="path88"
     transform="scale(0.75000003)" />
  <path
     style="fill:#ffffff;stroke-width:0.812698"
     d="m 147.4573,425.90146 c -3.71349,-1.1365 -5.60117,-2.48845 -6.85206,-4.90741 -1.07855,-2.08569 -1.22746,-16.92601 -1.22746,-122.32738 0,-132.35737 -0.37084,-123.17153 5.09312,-126.15768 2.4854,-1.35831 10.82507,-1.43597 154.19577,-1.43597 143.37069,0 151.71036,0.0777 154.19576,1.43597 5.46431,2.98634 5.09344,-6.21762 5.09009,126.32049 -0.003,117.50351 -0.0374,120.17288 -1.58191,122.70596 -0.86838,1.42417 -2.4213,3.06988 -3.45093,3.65714 -1.52519,0.86989 -29.80571,1.09344 -152.62762,1.20648 -82.91555,0.0763 -151.6912,-0.14761 -152.83476,-0.4976 z M 437.55204,312.68571 c -0.0473,-51.06793 -0.32162,-96.13122 -0.60953,-100.14064 l -0.52346,-7.28984 -10.56508,8.89056 c -9.14265,7.69359 -34.18595,29.07092 -104.73358,89.40218 -8.8822,7.59592 -16.92792,14.25494 -17.87937,14.79783 -1.91929,1.09514 -6.10188,1.34308 -8.31707,0.49303 -0.79065,-0.30339 -26.69579,-22.15482 -57.56698,-48.55873 -74.44556,-63.67273 -75.99904,-64.97555 -76.67315,-64.30179 -0.32023,0.32007 -0.69233,45.35159 -0.8269,100.07006 l -0.24468,99.48814 H 298.62517 437.6381 Z m -78.67373,-68.47603 c 32.59026,-27.93992 59.25502,-51.16277 59.25502,-51.60635 0,-1.07551 -237.83257,-1.11738 -238.49721,-0.042 -0.25987,0.42048 22.48426,20.4588 50.54252,44.5296 64.41155,55.25778 67.56278,57.91857 68.59409,57.91857 0.4678,0 27.51531,-22.85993 60.10558,-50.79984 z"
     id="path90"
     transform="scale(0.75000003)" />
  <path
     style="fill:#ffffff;stroke-width:0.812698"
     d="m 147.4573,425.90146 c -3.71349,-1.1365 -5.60117,-2.48845 -6.85206,-4.90741 -1.07858,-2.08575 -1.22746,-16.95257 -1.22746,-122.57319 V 178.22132 l 1.84685,-2.74054 c 1.21595,-1.80435 2.95112,-3.07339 5.07937,-3.71487 4.6805,-1.41077 300.04484,-1.41077 304.72533,0 2.12826,0.64148 3.86343,1.91052 5.07937,3.71487 l 1.84686,2.74054 -0.003,120.36235 c -0.003,117.7469 -0.0374,120.41863 -1.5819,122.95177 -0.86838,1.42417 -2.4213,3.06988 -3.45093,3.65714 -1.52519,0.86989 -29.80571,1.09344 -152.62762,1.20648 -82.91555,0.0763 -151.6912,-0.14761 -152.83476,-0.4976 z M 437.5347,314.31111 c -0.0569,-50.17397 -0.33115,-95.22524 -0.60952,-100.11394 l -0.50613,-8.88855 -7.68499,6.45045 c -7.95337,6.67571 -35.68641,30.33116 -91.40759,77.96791 -17.77662,15.19746 -33.10733,28.07593 -34.06824,28.61882 -2.24352,1.26753 -6.94346,1.26753 -9.16957,0 -0.95345,-0.54289 -27.81219,-23.29564 -59.68606,-50.56167 -31.87388,-27.26603 -61.44807,-52.46855 -65.72041,-56.0056 l -7.7679,-6.431 -0.49934,9.68179 c -0.27463,5.32499 -0.54891,50.36751 -0.60952,100.09449 l -0.11019,90.4127 H 298.66667 437.6381 Z m -109.83238,-43.4283 c 70.26641,-59.9902 90.50454,-77.72564 89.45405,-78.392 -1.23399,-0.78278 -233.4109,-0.78617 -236.14617,-0.003 -2.14151,0.61281 -3.68104,-0.79333 42.88821,39.17206 59.29084,50.88296 74.00423,63.3501 74.76408,63.3501 0.42914,0 13.49707,-10.85702 29.03983,-24.12671 z"
     id="path92"
     transform="scale(0.75000003)" />
  <path
     style="fill:#ffffff;stroke-width:0.812698"
     d="m 147.4573,425.90146 c -3.71349,-1.1365 -5.60117,-2.48845 -6.85206,-4.90741 -1.07858,-2.08575 -1.22746,-16.95257 -1.22746,-122.57319 V 178.22132 l 1.84685,-2.74054 c 1.21595,-1.80435 2.95112,-3.07339 5.07937,-3.71487 4.6805,-1.41077 300.04484,-1.41077 304.72533,0 2.12826,0.64148 3.86343,1.91052 5.07937,3.71487 l 1.84686,2.74054 -0.003,120.36235 c -0.003,117.7469 -0.0374,120.41863 -1.5819,122.95177 -0.86838,1.42417 -2.4213,3.06988 -3.45093,3.65714 -1.52519,0.86989 -29.80571,1.09344 -152.62762,1.20648 -82.91555,0.0763 -151.6912,-0.14761 -152.83476,-0.4976 z M 437.49744,315.93651 c -0.0849,-49.28 -0.36223,-94.33691 -0.61636,-100.12647 l -0.46203,-10.52647 -21.53651,18.27769 c -11.84508,10.05273 -38.17651,32.50094 -58.51429,49.88493 -20.33777,17.38398 -40.2692,34.41181 -44.29206,37.83961 -8.54257,7.27896 -9.94544,8.1145 -13.55927,8.07587 -3.73677,-0.0399 -4.4802,-0.55047 -19.4715,-13.37204 -74.03621,-63.3207 -109.31745,-93.40076 -115.28669,-98.29106 l -2.84444,-2.33031 -0.50197,12.51587 c -0.27608,6.88373 -0.55036,51.92158 -0.60952,100.08412 l -0.10756,87.56826 H 298.6735 437.65176 Z M 305.22062,289.95312 c 15.6428,-13.0892 102.41078,-87.65346 107.0556,-91.99846 l 5.25184,-4.91284 -2.74498,-0.59761 c -3.71292,-0.80833 -233.65188,-0.4117 -234.46786,0.40445 -0.35494,0.35502 0.30701,1.45216 1.47101,2.4381 1.164,0.98593 26.38399,22.64086 56.04443,48.12205 56.76669,48.76809 60.10816,51.60071 60.87038,51.60071 0.2622,0 3.19601,-2.27538 6.51958,-5.0564 z"
     id="path94"
     transform="scale(0.75000003)" />
  <path
     style="fill:#ffffff;stroke-width:0.812698"
     d="m 147.4573,425.90146 c -3.71349,-1.1365 -5.60117,-2.48845 -6.85206,-4.90741 -1.07861,-2.08581 -1.22709,-16.9396 -1.22442,-122.4902 0.003,-117.50351 0.0374,-120.17288 1.5819,-122.70595 0.86838,-1.42417 2.4213,-3.06989 3.45093,-3.65714 2.76418,-1.57657 300.82071,-1.99938 306.21732,-0.4344 2.57428,0.74653 4.18768,1.8601 5.48572,3.78626 l 1.83887,2.7287 -0.003,120.36235 c -0.003,117.7469 -0.0374,120.41863 -1.5819,122.95177 -0.86838,1.42417 -2.4213,3.06988 -3.45093,3.65714 -1.52519,0.86989 -29.80571,1.09344 -152.62762,1.20648 -82.91555,0.0763 -151.6912,-0.14761 -152.83476,-0.4976 z M 437.53214,320.8127 c -0.0583,-46.5981 -0.33255,-91.64976 -0.60952,-100.11481 l -0.50357,-15.391 -16.69123,14.17195 c -9.18019,7.79457 -38.74292,33.00624 -65.69498,56.02592 -26.95205,23.01968 -49.79528,42.29815 -50.76272,42.84104 -2.25857,1.26741 -6.95265,1.26741 -9.19175,0 -0.95911,-0.54289 -14.85625,-12.19114 -30.88254,-25.885 -55.66354,-47.56244 -86.07305,-73.50537 -94.15456,-80.32505 l -8.12698,-6.85805 -0.49945,16.21829 c -0.27469,8.92006 -0.54898,53.9783 -0.60952,100.12941 l -0.11008,83.91111 H 298.66667 437.6381 Z M 302.34182,292.36987 c 7.32174,-5.97838 105.27229,-90.13565 110.05716,-94.55904 l 5.1868,-4.79496 -5.21193,-0.51893 c -6.24111,-0.62139 -210.12723,-0.54789 -223.19169,0.0805 -6.20329,0.29836 -8.92999,0.71571 -8.53333,1.30614 0.78031,1.16149 17.46166,15.59852 68.03688,58.88311 50.75237,43.43621 49.34153,42.24286 49.94207,42.24286 0.26469,0 1.936,-1.18784 3.71404,-2.63965 z"
     id="path96"
     transform="scale(0.75000003)" />
</svg>
