<?xml version="1.0" encoding="UTF-8" standalone="no"?>
<svg
   xmlns:dc="http://purl.org/dc/elements/1.1/"
   xmlns:cc="http://creativecommons.org/ns#"
   xmlns:rdf="http://www.w3.org/1999/02/22-rdf-syntax-ns#"
   xmlns:svg="http://www.w3.org/2000/svg"
   xmlns="http://www.w3.org/2000/svg"
   xmlns:sodipodi="http://sodipodi.sourceforge.net/DTD/sodipodi-0.dtd"
   xmlns:inkscape="http://www.inkscape.org/namespaces/inkscape"
   height="512pt"
   viewBox="0 0 512 512"
   width="512pt"
   version="1.1"
   id="svg58"
   sodipodi:docname="linkedin-icon.svg"
   inkscape:version="1.0.2 (e86c8708, 2021-01-15)">
  <metadata
     id="metadata64">
    <rdf:RDF>
      <cc:Work
         rdf:about="">
        <dc:format>image/svg+xml</dc:format>
        <dc:type
           rdf:resource="http://purl.org/dc/dcmitype/StillImage" />
      </cc:Work>
    </rdf:RDF>
  </metadata>
  <defs
     id="defs62" />
  <sodipodi:namedview
     pagecolor="#ffffff"
     bordercolor="#666666"
     borderopacity="1"
     objecttolerance="10"
     gridtolerance="10"
     guidetolerance="10"
     inkscape:pageopacity="0"
     inkscape:pageshadow="2"
     inkscape:window-width="2560"
     inkscape:window-height="1387"
     id="namedview60"
     showgrid="false"
     inkscape:zoom="4.7968034"
     inkscape:cx="338.6198"
     inkscape:cy="440.02918"
     inkscape:window-x="0"
     inkscape:window-y="25"
     inkscape:window-maximized="1"
     inkscape:current-layer="svg58"
     inkscape:document-rotation="0" />
  <path
     d="m256 0c-141.363281 0-256 114.636719-256 256s114.636719 256 256 256 256-114.636719 256-256-114.636719-256-256-256zm-74.390625 387h-62.347656v-187.574219h62.347656zm-31.171875-213.1875h-.40625c-20.921875 0-34.453125-14.402344-34.453125-32.402344 0-18.40625 13.945313-32.410156 35.273437-32.410156 21.328126 0 34.453126 14.003906 34.859376 32.410156 0 18-13.53125 32.402344-35.273438 32.402344zm255.984375 213.1875h-62.339844v-100.347656c0-25.21875-9.027343-42.417969-31.585937-42.417969-17.222656 0-27.480469 11.601563-31.988282 22.800781-1.648437 4.007813-2.050781 9.609375-2.050781 15.214844v104.75h-62.34375s.816407-169.976562 0-187.574219h62.34375v26.558594c8.285157-12.78125 23.109375-30.960937 56.1875-30.960937 41.019531 0 71.777344 26.808593 71.777344 84.421874zm0 0"
     id="path56" />
  <path
     style="fill:#ff0000;stroke-width:0.928798"
     d="M 159.28889,391.02404 V 266.56508 h 41.33152 41.33152 v 124.45896 124.45895 h -41.33152 -41.33152 z"
     id="path66"
     transform="scale(0.74999998)" />
  <path
     style="fill:#ffffff;stroke-width:0.928798"
     d="m 187.74176,229.79725 c -32.52017,-7.87143 -44.17276,-47.34605 -20.88628,-70.75492 5.77945,-5.80983 11.70721,-9.04766 20.84111,-11.38371 9.14143,-2.33799 17.66131,-2.33126 26.85938,0.0212 18.17562,4.64854 29.36151,17.15637 31.96143,35.73858 3.06356,21.89604 -11.47202,41.70507 -34.12571,46.50636 -7.74715,1.64195 -17.54898,1.59124 -24.64993,-0.12752 z"
     id="path68"
     transform="scale(0.74999998)" />
  <path
     style="fill:#ffffff;stroke-width:0.928798"
     d="M 159.28889,391.02404 V 266.56508 h 41.33152 41.33152 v 124.45896 124.45895 h -41.33152 -41.33152 z"
     id="path70"
     transform="scale(0.74999998)" />
  <path
     style="fill:#ffffff;stroke-width:0.928798"
     d="m 187.74176,229.79725 c -32.63248,-7.89861 -44.17238,-47.34643 -20.74105,-70.90092 11.82083,-11.88296 32.63,-16.13539 50.84607,-10.39059 29.63581,9.34625 38.99257,47.79713 16.93333,69.58612 -2.95183,2.91567 -7.80213,6.47525 -10.77844,7.91019 -10.4322,5.02958 -24.90279,6.54416 -36.25991,3.7952 z"
     id="path72"
     transform="scale(0.74999998)" />
  <path
     style="fill:#ffffff;stroke-width:0.928798"
     d="m 187.74176,229.79725 c -20.85894,-5.04886 -34.4406,-23.45932 -32.82976,-44.50201 1.78771,-23.35298 20.82519,-39.47392 46.6154,-39.47392 6.24109,0 18.02543,2.66114 22.95543,5.1838 8.31881,4.2567 16.10548,12.91607 19.34866,21.51721 9.72898,25.8019 -4.4453,51.68114 -31.4398,57.40244 -7.74715,1.64195 -17.54898,1.59124 -24.64993,-0.12752 z"
     id="path74"
     transform="scale(0.74999998)" />
  <path
     style="fill:#ffffff;stroke-width:0.928798"
     d="m 189.47483,230.24887 c -24.04348,-5.40566 -38.75411,-27.18185 -33.95647,-50.26587 4.043,-19.45307 20.08649,-32.43222 41.85125,-33.85757 12.64579,-0.82817 24.66141,2.31813 32.91217,8.61805 24.70361,18.86261 21.24341,57.7679 -6.33691,71.25002 -9.55129,4.66897 -24.44979,6.50821 -34.47004,4.25537 z"
     id="path80"
     transform="scale(0.74999998)" />
  <path
     style="fill:#ffffff;stroke-width:0.928798"
     d="m 189.47483,230.24887 c -15.7394,-3.53867 -27.71518,-13.80201 -32.66157,-27.99124 -2.53612,-7.27515 -2.28101,-21.68531 0.50979,-28.79571 7.17548,-18.28171 25.34812,-28.75232 47.47695,-27.35501 17.86622,1.12816 31.49011,9.8775 38.21552,24.54222 9.53654,20.79438 1.07706,45.49587 -18.93014,55.27557 -9.84549,4.81257 -24.36803,6.62698 -34.61055,4.32417 z"
     id="path82"
     transform="scale(0.74999998)" />
  <path
     style="fill:#ffffff;stroke-width:0.928798"
     d="m 190.86803,230.64861 c -4.07222,-0.64742 -13.3431,-4.21313 -17.06813,-6.56464 -17.8923,-11.29492 -24.35679,-36.15392 -14.3434,-55.15716 5.12373,-9.72373 13.42782,-16.58998 24.80911,-20.51345 8.81281,-3.03804 24.84386,-3.03152 33.6795,0.0137 15.78708,5.44103 26.31573,18.08178 28.62553,34.36796 2.52268,17.78716 -6.93518,35.85484 -22.66394,43.29573 -9.18011,4.34289 -22.67825,6.20504 -33.03867,4.55788 z"
     id="path84"
     transform="scale(0.74999998)" />
  <path
     style="fill:#ffffff;stroke-width:0.928798"
     d="m 288.72139,391.02498 0.13485,-124.458 41.07926,-9.5e-4 41.07926,-9.5e-4 0.25226,17.62716 0.25225,17.62717 5.53815,-7.49774 c 16.73825,-22.66086 38.933,-33.48406 68.76571,-33.53339 18.59243,-0.0307 34.07019,3.55182 47.5886,11.0151 23.04094,12.72049 37.57222,34.38206 45.01316,67.10049 1.99338,8.76503 2.03719,10.48926 2.35701,92.75509 l 0.32586,83.82403 h -40.86284 -40.86285 l -0.3094,-75.00045 c -0.30286,-73.4131 -0.35164,-75.15071 -2.3044,-82.09975 -6.63649,-23.61645 -21.37149,-34.79773 -43.45308,-32.97324 -15.69927,1.29715 -29.19523,10.22885 -36.88916,24.41344 -5.44789,10.04378 -5.37115,8.74906 -5.37115,90.62249 v 75.03751 h -41.23417 -41.23416 z"
     id="path86"
     transform="scale(0.74999998)" />
  <path
     style="fill:#ffffff;stroke-width:0.928798"
     d="m 288.70872,391.02499 0.14752,-124.458 41.07926,-9.6e-4 41.07926,-9.5e-4 0.25226,17.801 0.25225,17.80101 3.43795,-5.18009 c 8.27204,-12.46382 22.516,-24.32655 35.9489,-29.93914 19.92222,-8.32398 48.73485,-8.48455 71.08821,-0.39616 29.10676,10.53205 47.92515,34.536 56.36376,71.89524 2.07918,9.20494 2.10085,10.0374 2.42381,93.11202 l 0.32586,83.82403 H 500.2495 459.39125 l -0.31922,-75.00045 c -0.31212,-73.32808 -0.3636,-75.15876 -2.30899,-82.09975 -5.60708,-20.00566 -15.97849,-30.18431 -33.29839,-32.67949 -9.27339,-1.33597 -18.25806,0.13877 -26.91665,4.41807 -11.82914,5.84628 -22.1997,19.36062 -24.55942,32.00449 -0.57618,3.08729 -0.9337,33.40589 -0.9337,79.18005 v 74.17708 H 329.80804 288.5612 Z"
     id="path88"
     transform="scale(0.74999998)" />
  <path
     style="fill:#ffffff;stroke-width:0.928798"
     d="m 288.67545,391.02504 0.18079,-124.45796 41.07926,-10e-4 41.07926,-10e-4 0.25226,17.801 0.25225,17.80101 3.43795,-5.18009 c 8.27204,-12.46382 22.516,-24.32655 35.9489,-29.93914 19.92222,-8.32398 48.73485,-8.48455 71.08821,-0.39616 29.10676,10.53205 47.92515,34.536 56.36376,71.89524 2.07918,9.20494 2.10085,10.0374 2.42381,93.11202 l 0.32586,83.82403 H 500.254 459.40024 l -0.3289,-75.00045 c -0.32327,-73.71579 -0.36359,-75.12476 -2.35396,-82.25804 -5.35854,-19.20443 -15.73027,-29.54586 -32.47583,-32.38094 -23.87753,-4.04255 -48.40434,13.25152 -52.26443,36.85213 -0.54122,3.30899 -0.91367,35.47381 -0.91687,79.18005 l -0.005,73.60725 h -41.28012 -41.2801 z"
     id="path90"
     transform="scale(0.74999998)" />
  <path
     style="fill:#ffffff;stroke-width:0.928798"
     d="m 288.58349,391.02502 0.27275,-124.45797 41.09932,-9.8e-4 41.09932,-9.9e-4 v 17.18277 c 0,9.45052 0.31346,17.18201 0.69659,17.1811 0.38313,-9.1e-4 1.86554,-1.85196 3.29423,-4.11344 4.49058,-7.10812 14.46253,-17.04858 22.33201,-22.26151 15.16391,-10.04492 28.68928,-13.79695 49.37422,-13.69674 46.00008,0.22284 77.75916,24.86399 89.66427,69.5685 4.33208,16.26723 4.57135,21.78582 4.59061,105.87719 l 0.0181,79.18004 h -40.79135 -40.79137 l -0.37507,-75.00045 c -0.36435,-72.85651 -0.43115,-75.20367 -2.33698,-82.10958 -2.6512,-9.60687 -6.00545,-15.92301 -11.59421,-21.83231 -11.31608,-11.96508 -31.04661,-14.69212 -48.02274,-6.63742 -12.39354,5.88039 -23.27477,20.29447 -25.15848,33.32676 -0.47438,3.28201 -0.87092,38.88157 -0.88119,79.11015 l -0.0187,73.14285 h -41.37207 -41.37206 z"
     id="path92"
     transform="scale(0.74999998)" />
  <path
     style="fill:#ffffff;stroke-width:0.928798"
     d="M 159.28889,391.02403 V 266.56508 h 41.33152 41.33152 v 124.45895 124.45895 h -41.33152 -41.33152 z"
     id="path81"
     transform="scale(0.74999998)" />
  <rect
     style="fill:#ffffff;stroke-width:0.75"
     id="rect83"
     width="62.14901"
     height="32.361088"
     x="119.26172"
     y="354.63892" />
  <rect
     style="fill:#ffffff;stroke-width:0.75"
     id="rect85"
     width="62.174942"
     height="26.562275"
     x="119.32878"
     y="321.56781" />
  <rect
     style="fill:#ffffff;stroke-width:0.75"
     id="rect87"
     width="62.174942"
     height="7.4076824"
     x="119.39076"
     y="347.63416" />
  <rect
     style="fill:#ffffff;stroke-width:0.75"
     id="rect89"
     width="62.303986"
     height="148.20837"
     x="119.26172"
     y="199.4258" />
</svg>
